<svg width="1200" height="520" viewBox="0 0 1200 520" xmlns="http://www.w3.org/2000/svg">
  <rect width="1200" height="520" fill="#FFFFFF"/>
  <rect x="0" y="0" width="1200" height="64" fill="#E30613" opacity="0.08"/>
  <path d="M0,392 C260,340 420,470 650,410 C880,345 1010,315 1200,340 L1200,520 L0,520 Z" fill="#F5F6F7"/>
  <g transform="translate(120 140)">
    <rect x="0" y="0" width="700" height="240" rx="8" fill="#FFFFFF" stroke="#E5E7EB"/>
    <rect x="34" y="36" width="320" height="16" rx="8" fill="#111827" opacity="0.10"/>
    <rect x="34" y="64" width="420" height="12" rx="6" fill="#111827" opacity="0.08"/>
    <rect x="34" y="88" width="390" height="12" rx="6" fill="#111827" opacity="0.08"/>
    <rect x="34" y="112" width="340" height="12" rx="6" fill="#111827" opacity="0.08"/>
    <g transform="translate(520 62)">
      <circle cx="70" cy="70" r="64" fill="#E30613" opacity="0.10"/>
      <path d="M54 58 h52 v52 h-52 z" fill="#FFFFFF" stroke="#E5E7EB"/>
      <path d="M52 92 C62 110 82 110 92 92" fill="none" stroke="#E30613" stroke-width="4" stroke-linecap="round"/>
      <path d="M92 92 L102 102" stroke="#E30613" stroke-width="4" stroke-linecap="round"/>
      <path d="M92 92 L82 102" stroke="#E30613" stroke-width="4" stroke-linecap="round"/>
    </g>
    <rect x="34" y="166" width="210" height="38" rx="6" fill="#E30613" opacity="0.92"/>
  </g>
</svg>

