<svg width="1200" height="520" viewBox="0 0 1200 520" xmlns="http://www.w3.org/2000/svg">
  <defs>
    <linearGradient id="g" x1="0" y1="0" x2="1" y2="1">
      <stop offset="0" stop-color="#F5F6F7"/>
      <stop offset="1" stop-color="#FFFFFF"/>
    </linearGradient>
  </defs>
  <rect width="1200" height="520" fill="url(#g)"/>
  <rect x="0" y="0" width="1200" height="64" fill="#E30613" opacity="0.10"/>
  <path d="M0,380 C260,320 420,460 650,395 C870,335 980,280 1200,330 L1200,520 L0,520 Z" fill="#E30613" opacity="0.10"/>
  <path d="M70,120 h520" stroke="#111827" stroke-opacity="0.18" stroke-width="2"/>
  <path d="M70,160 h420" stroke="#111827" stroke-opacity="0.12" stroke-width="2"/>
  <path d="M70,200 h460" stroke="#111827" stroke-opacity="0.12" stroke-width="2"/>
  <g transform="translate(780 140)">
    <rect x="0" y="0" width="300" height="240" rx="6" fill="#FFFFFF" stroke="#E5E7EB"/>
    <rect x="24" y="26" width="252" height="14" rx="7" fill="#111827" opacity="0.10"/>
    <rect x="24" y="56" width="210" height="12" rx="6" fill="#111827" opacity="0.08"/>
    <rect x="24" y="82" width="232" height="12" rx="6" fill="#111827" opacity="0.08"/>
    <rect x="24" y="108" width="198" height="12" rx="6" fill="#111827" opacity="0.08"/>
    <rect x="24" y="146" width="120" height="34" rx="6" fill="#E30613" opacity="0.95"/>
    <circle cx="258" cy="162" r="26" fill="#E30613" opacity="0.14"/>
    <path d="M252 160 l8 8 l18 -18" fill="none" stroke="#E30613" stroke-width="4" stroke-linecap="round" stroke-linejoin="round"/>
  </g>
  <circle cx="1020" cy="96" r="56" fill="#E30613" opacity="0.08"/>
  <circle cx="1020" cy="96" r="26" fill="#111827" opacity="0.06"/>
</svg>

