<svg width="1200" height="520" viewBox="0 0 1200 520" xmlns="http://www.w3.org/2000/svg">
  <rect width="1200" height="520" fill="#FFFFFF"/>
  <rect x="0" y="0" width="1200" height="64" fill="#F5F6F7"/>
  <path d="M0,388 C240,328 420,470 650,406 C880,340 1010,300 1200,338 L1200,520 L0,520 Z" fill="#E30613" opacity="0.08"/>
  <g transform="translate(120 140)">
    <rect x="0" y="0" width="680" height="240" rx="8" fill="#FFFFFF" stroke="#E5E7EB"/>
    <rect x="34" y="36" width="280" height="16" rx="8" fill="#111827" opacity="0.10"/>
    <rect x="34" y="64" width="420" height="12" rx="6" fill="#111827" opacity="0.08"/>
    <rect x="34" y="88" width="390" height="12" rx="6" fill="#111827" opacity="0.08"/>
    <rect x="34" y="112" width="340" height="12" rx="6" fill="#111827" opacity="0.08"/>
    <g transform="translate(510 52)">
      <rect x="0" y="0" width="136" height="136" rx="10" fill="#F5F6F7" stroke="#E5E7EB"/>
      <circle cx="68" cy="62" r="26" fill="#E30613" opacity="0.12"/>
      <path d="M52 92 C60 80 76 80 84 92" fill="none" stroke="#E30613" stroke-width="4" stroke-linecap="round"/>
      <path d="M44 58 C48 52 56 50 62 54" fill="none" stroke="#111827" stroke-opacity="0.25" stroke-width="3" stroke-linecap="round"/>
      <path d="M74 54 C80 50 88 52 92 58" fill="none" stroke="#111827" stroke-opacity="0.25" stroke-width="3" stroke-linecap="round"/>
    </g>
    <rect x="34" y="166" width="210" height="38" rx="6" fill="#E30613" opacity="0.92"/>
  </g>
  <g transform="translate(850 150)">
    <rect x="0" y="0" width="230" height="220" rx="6" fill="#F5F6F7" stroke="#E5E7EB"/>
    <rect x="26" y="34" width="160" height="14" rx="7" fill="#111827" opacity="0.10"/>
    <rect x="26" y="62" width="180" height="12" rx="6" fill="#111827" opacity="0.08"/>
    <path d="M26 112 h178" stroke="#E30613" stroke-opacity="0.35" stroke-width="4" stroke-linecap="round"/>
    <path d="M26 134 h138" stroke="#111827" stroke-opacity="0.12" stroke-width="3" stroke-linecap="round"/>
    <path d="M26 156 h158" stroke="#111827" stroke-opacity="0.12" stroke-width="3" stroke-linecap="round"/>
  </g>
</svg>

