<svg width="1200" height="520" viewBox="0 0 1200 520" xmlns="http://www.w3.org/2000/svg">
  <rect width="1200" height="520" fill="#FFFFFF"/>
  <rect x="0" y="0" width="1200" height="64" fill="#E30613" opacity="0.08"/>
  <path d="M0,388 C260,330 420,470 650,402 C880,334 1010,300 1200,338 L1200,520 L0,520 Z" fill="#F5F6F7"/>
  <g transform="translate(120 140)">
    <rect x="0" y="0" width="620" height="240" rx="8" fill="#FFFFFF" stroke="#E5E7EB"/>
    <circle cx="84" cy="86" r="36" fill="#E30613" opacity="0.10"/>
    <path d="M84 66 C74 56 56 62 56 78 C56 102 84 114 84 114 C84 114 112 102 112 78 C112 62 94 56 84 66 Z" fill="#E30613" opacity="0.60"/>
    <rect x="150" y="46" width="360" height="16" rx="8" fill="#111827" opacity="0.10"/>
    <rect x="150" y="76" width="420" height="12" rx="6" fill="#111827" opacity="0.08"/>
    <rect x="150" y="98" width="400" height="12" rx="6" fill="#111827" opacity="0.08"/>
    <rect x="150" y="120" width="360" height="12" rx="6" fill="#111827" opacity="0.08"/>
    <rect x="150" y="162" width="170" height="38" rx="6" fill="#E30613" opacity="0.92"/>
    <rect x="332" y="162" width="170" height="38" rx="6" fill="#111827" opacity="0.08"/>
  </g>
  <g transform="translate(820 150)">
    <rect x="0" y="0" width="260" height="220" rx="6" fill="#F5F6F7" stroke="#E5E7EB"/>
    <rect x="28" y="34" width="200" height="14" rx="7" fill="#111827" opacity="0.10"/>
    <rect x="28" y="62" width="160" height="12" rx="6" fill="#111827" opacity="0.08"/>
    <rect x="28" y="88" width="188" height="12" rx="6" fill="#111827" opacity="0.08"/>
    <circle cx="196" cy="156" r="34" fill="#E30613" opacity="0.14"/>
    <path d="M184 156 h24" stroke="#E30613" stroke-width="4" stroke-linecap="round"/>
    <path d="M196 144 v24" stroke="#E30613" stroke-width="4" stroke-linecap="round"/>
  </g>
</svg>

